<?xml version="1.0"?>
<!--Icons from directory ""-->
<svg xmlns="http://www.w3.org/2000/svg" width="21" height="102" viewBox="0 0 21 102"><svg xmlns:sketch="http://www.bohemiancoding.com/sketch/ns" xmlns:xlink="http://www.w3.org/1999/xlink" height="19" width="16" version="1.1" viewBox="0 0 16 19" id="calories" y="0"><title>Shape</title><desc>Created with Sketch.</desc><g id="calories-Page-1" fill-rule="evenodd" sketch:type="MSPage" fill="none"><g id="calories-Day-009---Recipe-Card" transform="translate(-439 -340)" fill="#55A9FF" sketch:type="MSArtboardGroup"><g id="calories-Player" transform="translate(125 60)" sketch:type="MSLayerGroup"><g id="calories-Begginer-level-+-Group-Copy-+-noun_129550_cc" sketch:type="MSShapeGroup" transform="translate(314 280)"><g id="calories-Begginer-level-+-Group-Copy"><path id="calories-Shape" d="m15.287 11.708c0-2.3827-1.135-4.7515-3.036-6.3362l-0.248-0.1991c-0.291-0.2344-0.732-0.145-0.893 0.1925-0.078 0.1641-0.133 1.8259-0.133 2.106 0 0.0565-0.012 0.1492-0.011 0.1591 0 0.2363-0.211 0.4238-0.455 0.3836-0.191-0.0314-0.322-0.2131-0.323-0.4072-0.012-2.842-0.8808-4.8241-2.4748-6.3041-0.9748-0.90504-2.1273-1.7046-2.4801-1.0805-0.0899 0.15914 0.0589 0.51672 0.2088 0.9751 0.3332 1.0193-0.6839 2.6473-2.1216 4.2741-1.3513 1.5292-3.0333 3.4326-3.0333 6.2367 0 3.774 3.5749 7.212 7.4998 7.212 3.9252 0 7.5002-3.438 7.5002-7.212z"/></g></g></g></g></g></svg><svg xmlns:sketch="http://www.bohemiancoding.com/sketch/ns" xmlns:xlink="http://www.w3.org/1999/xlink" height="20" width="20" version="1.1" viewBox="0 0 20 20" id="clock" y="19"><title>noun_2306 (1)</title><desc>Created with Sketch.</desc><g id="clock-Page-1" fill-rule="evenodd" sketch:type="MSPage" fill="none"><g id="clock-Day-009---Recipe-Card" transform="translate(-208 -340)" fill="#55A9FF" sketch:type="MSArtboardGroup"><g id="clock-Player" transform="translate(125 60)" sketch:type="MSLayerGroup"><g id="clock-15-min-+-noun_2306-(1)" sketch:type="MSShapeGroup" transform="translate(83 280)"><g id="clock-noun_2306-(1)"><path id="clock-Shape" d="m9.8988 19.798c-5.4584 0-9.8988-4.441-9.8988-9.899 0-5.4582 4.4404-9.899 9.8988-9.899 5.4592 0 9.8992 4.4408 9.8992 9.899 0 5.458-4.44 9.899-9.8992 9.899zm0-17.74c-4.3236 0-7.841 3.5176-7.841 7.841 0 4.323 3.5176 7.841 7.841 7.841 4.3242 0 7.8422-3.518 7.8422-7.841 0-4.3234-3.518-7.841-7.8422-7.841z"/><path id="clock-Shape" d="m14.752 11.922h-6.7092v-6.341c0-0.6834 0.5542-1.2374 1.2374-1.2374s1.2378 0.554 1.2378 1.2374v3.8669h4.234c0.683 0 1.237 0.5541 1.237 1.2371s-0.554 1.237-1.237 1.237z"/></g></g></g></g></g></svg><svg xmlns:sketch="http://www.bohemiancoding.com/sketch/ns" xmlns:xlink="http://www.w3.org/1999/xlink" height="19" width="16" version="1.1" viewBox="0 0 16 19" id="level" y="39"><title>Group</title><desc>Created with Sketch.</desc><g id="level-Page-1" fill-rule="evenodd" sketch:type="MSPage" fill="none"><g id="level-Day-009---Recipe-Card" transform="translate(-300 -341)" sketch:type="MSArtboardGroup"><g id="level-Player" transform="translate(125 60)" sketch:type="MSLayerGroup"><g id="level-Begginer-level-+-Group" sketch:type="MSShapeGroup" transform="translate(175 280)"><g id="level-Group" transform="translate(0 1)"><path id="level-Shape" fill="#D5D5D5" d="m15.932 16.55c0 0.992-0.802 1.792-1.791 1.792s-1.792-0.8-1.792-1.791v-14.549c0-0.9903 0.803-1.7935 1.792-1.7935 0.989-0.00004 1.791 0.8032 1.791 1.7927v14.549z"/><path id="level-Shape" fill="#55A9FF" d="m3.7041 16.55c0 0.992-0.8053 1.792-1.7941 1.792-0.98849 0-1.7896-0.8-1.7896-1.792l-0.00005-3.468c0-0.99 0.80116-1.793 1.7896-1.793 0.9888 0 1.7941 0.804 1.7941 1.793v3.468z"/><path id="level-Shape" fill="#D5D5D5" d="m9.3841 16.55c0 0.992-0.8067 1.792-1.7982 1.792-0.9886 0-1.7888-0.799-1.7888-1.791v-8.7302c0-0.9897 0.7991-1.7897 1.7881-1.7897 0.9934 0 1.798 0.8 1.798 1.7897l0.0009 8.7292z"/></g></g></g></g></g></svg><svg xmlns:sketch="http://www.bohemiancoding.com/sketch/ns" xmlns:xlink="http://www.w3.org/1999/xlink" height="26" width="21" version="1.1" viewBox="0 0 21 26" id="play" y="58"><title>Shape Copy 6</title><desc>Created with Sketch.</desc><g id="play-Page-1" fill-rule="evenodd" sketch:type="MSPage" fill="none"><g id="play-Day-009---Recipe-Card" transform="translate(-606 -232)" fill="#fff" sketch:type="MSArtboardGroup"><g id="play-Player" transform="translate(125 60)" sketch:type="MSLayerGroup"><g id="play-Play" sketch:type="MSShapeGroup" transform="translate(453 149)"><path id="play-Shape-Copy-6" d="m47.193 33.899l-7.721-5.346-6.666-4.615c-1.835-1.27-4.341 0.043-4.341 2.275v9.96 9.96c0 2.232 2.506 3.545 4.341 2.275l6.666-4.615 7.721-5.346c1.589-1.099 1.589-3.448 0-4.548z"/></g></g></g></g></svg><svg xmlns:sketch="http://www.bohemiancoding.com/sketch/ns" xmlns:xlink="http://www.w3.org/1999/xlink" height="18" width="18" version="1.1" viewBox="0 0 18 18" id="users" y="84"><title>Oval Copy</title><desc>Created with Sketch.</desc><g id="users-Page-1" fill-rule="evenodd" sketch:type="MSPage" fill="none"><g id="users-Day-009---Recipe-Card" transform="translate(-150 -340)" fill="#55A9FF" sketch:type="MSArtboardGroup"><g id="users-Player" transform="translate(125 60)" sketch:type="MSLayerGroup"><g id="users-Oval-Copy-+-1" sketch:type="MSShapeGroup" transform="translate(25 280)"><path id="users-Oval-Copy" d="m9 9c2.485 0 4.5-2.0147 4.5-4.5s-2.015-4.5-4.5-4.5c-2.4853 0-4.5 2.0147-4.5 4.5s2.0147 4.5 4.5 4.5zm-9 9h18s-2.138-6.75-9-6.75c-6.8625 0-9 6.75-9 6.75z"/></g></g></g></g></svg></svg>
